<?xml version="1.0" encoding="UTF-8" standalone="no"?>
<!-- Created with Inkscape (http://www.inkscape.org/) -->

<svg
   xmlns:dc="http://purl.org/dc/elements/1.1/"
   xmlns:cc="http://creativecommons.org/ns#"
   xmlns:rdf="http://www.w3.org/1999/02/22-rdf-syntax-ns#"
   xmlns:svg="http://www.w3.org/2000/svg"
   xmlns="http://www.w3.org/2000/svg"
   xmlns:sodipodi="http://sodipodi.sourceforge.net/DTD/sodipodi-0.dtd"
   xmlns:inkscape="http://www.inkscape.org/namespaces/inkscape"
   id="svg2985"
   version="1.1"
   inkscape:version="0.48.5 r10040"
   width="1000"
   height="684.20575"
   xml:space="preserve"
   sodipodi:docname="A.svg"><metadata
     id="metadata2991"><rdf:RDF><cc:Work
         rdf:about=""><dc:format>image/svg+xml</dc:format><dc:type
           rdf:resource="http://purl.org/dc/dcmitype/StillImage" /><dc:title></dc:title></cc:Work></rdf:RDF></metadata><defs
     id="defs2989"><radialGradient
       fx="0"
       fy="0"
       cx="0"
       cy="0"
       r="1"
       gradientUnits="userSpaceOnUse"
       gradientTransform="matrix(777.36981,0,0,-981.9408,303.04047,833.23526)"
       spreadMethod="pad"
       id="radialGradient3007"><stop
         style="stop-opacity:1;stop-color:#6b8db6"
         offset="0"
         id="stop3009" /><stop
         style="stop-opacity:1;stop-color:#28374d"
         offset="1"
         id="stop3011" /></radialGradient><radialGradient
       fx="0"
       fy="0"
       cx="0"
       cy="0"
       r="1"
       gradientUnits="userSpaceOnUse"
       gradientTransform="matrix(793.41028,0,0,-793.41028,262.32175,735.26794)"
       spreadMethod="pad"
       id="radialGradient3029"><stop
         style="stop-opacity:1;stop-color:#b2bdd7"
         offset="0"
         id="stop3031" /><stop
         style="stop-opacity:1;stop-color:#81818e"
         offset="1"
         id="stop3033" /></radialGradient><radialGradient
       fx="0"
       fy="0"
       cx="0"
       cy="0"
       r="1"
       gradientUnits="userSpaceOnUse"
       gradientTransform="matrix(793.41028,0,0,-793.41028,262.32175,735.26794)"
       spreadMethod="pad"
       id="radialGradient3049"><stop
         style="stop-opacity:1;stop-color:#d4d9e9"
         offset="0"
         id="stop3051" /><stop
         style="stop-opacity:1;stop-color:#b6b5bc"
         offset="1"
         id="stop3053" /></radialGradient><radialGradient
       fx="0"
       fy="0"
       cx="0"
       cy="0"
       r="1"
       gradientUnits="userSpaceOnUse"
       gradientTransform="matrix(793.41028,0,0,-793.41028,262.32037,735.26794)"
       spreadMethod="pad"
       id="radialGradient3069"><stop
         style="stop-opacity:1;stop-color:#b2bdd7"
         offset="0"
         id="stop3071" /><stop
         style="stop-opacity:1;stop-color:#81818e"
         offset="1"
         id="stop3073" /></radialGradient><radialGradient
       fx="0"
       fy="0"
       cx="0"
       cy="0"
       r="1"
       gradientUnits="userSpaceOnUse"
       gradientTransform="matrix(793.41028,0,0,-793.41028,262.32037,735.26794)"
       spreadMethod="pad"
       id="radialGradient3089"><stop
         style="stop-opacity:1;stop-color:#d4d9e9"
         offset="0"
         id="stop3091" /><stop
         style="stop-opacity:1;stop-color:#b6b5bc"
         offset="1"
         id="stop3093" /></radialGradient><clipPath
       clipPathUnits="userSpaceOnUse"
       id="clipPath3101"><path
         d="M 0,0 612,0 612,792 0,792 0,0 z"
         id="path3103"
         inkscape:connector-curvature="0" /></clipPath><clipPath
       clipPathUnits="userSpaceOnUse"
       id="clipPath3250"><path
         inkscape:connector-curvature="0"
         d="M 0,0 612,0 612,396 0,396 0,0 z"
         id="path3252" /></clipPath><clipPath
       clipPathUnits="userSpaceOnUse"
       id="clipPath3228"><path
         inkscape:connector-curvature="0"
         d="M 0,0 612,0 612,396 0,396 0,0 z"
         id="path3230" /></clipPath><clipPath
       clipPathUnits="userSpaceOnUse"
       id="clipPath4843"><path
         inkscape:connector-curvature="0"
         d="m 48.832,24 280.595,0 0,96 -280.595,0 0,-96 z"
         id="path4845" /></clipPath><clipPath
       clipPathUnits="userSpaceOnUse"
       id="clipPath4851"><path
         inkscape:connector-curvature="0"
         d="m 48.832,22.811 213.996,0 0,97.189 -213.996,0 0,-97.189 z"
         id="path4853" /></clipPath><clipPath
       clipPathUnits="userSpaceOnUse"
       id="clipPath7880"><path
         inkscape:connector-curvature="0"
         d="m 361.81,280.934 123.794,0 0,123.674 -123.794,0 0,-123.674 z"
         id="path7882" /></clipPath></defs><sodipodi:namedview
     pagecolor="#ffffff"
     bordercolor="#666666"
     borderopacity="1"
     objecttolerance="10"
     gridtolerance="10"
     guidetolerance="10"
     inkscape:pageopacity="0"
     inkscape:pageshadow="2"
     inkscape:window-width="1047"
     inkscape:window-height="1005"
     id="namedview2987"
     showgrid="false"
     fit-margin-left="0.5"
     fit-margin-bottom="0.5"
     fit-margin-top="0.5"
     fit-margin-right="0.5"
     inkscape:zoom="0.3761995"
     inkscape:cx="800.51408"
     inkscape:cy="136.4347"
     inkscape:window-x="865"
     inkscape:window-y="15"
     inkscape:window-maximized="0"
     inkscape:current-layer="g2993" /><g
     id="g2993"
     inkscape:groupmode="layer"
     inkscape:label="CreditsMO"
     transform="matrix(1.25,0,0,-1.25,-1250.3381,2253.8496)"><path
       style="fill:#00674b"
       inkscape:connector-curvature="0"
       d="m 1362.0272,1747.1671 c 3.5762,0 5.8553,3.6124 8.1197,9.1974 2.9252,6.9051 16.5788,19.71 35.4005,19.71 14.2913,0 28.2581,-8.8777 39.6259,-18.0752 10.7186,-8.8695 19.4859,-9.1941 19.4859,-13.1476 0,-1.3003 -2.2693,-2.2891 -4.8649,-2.2891 -10.7169,0 -29.5468,16.0893 -49.6886,16.0893 -22.7406,0 -41.2607,-19.7017 -41.2607,-30.8734 0,-3.2878 1.3035,-5.918 5.5224,-5.918 4.8846,0 10.4087,11.8392 23.0686,11.8392 11.6859,0 21.437,-11.1734 37.673,-8.8777 1.9529,0.3279 2.594,-2.6203 1.2805,-3.2927 -32.472,-18.3834 -66.887,-35.8043 -66.887,-93.9504 0,-44.6737 25.0083,-87.7225 80.2127,-87.7225 57.5001,0 85.099,37.4555 85.099,87.7225 0,43.3636 -26.2839,83.4329 -61.7008,83.4329 -1.2987,0 -2.5923,0 -3.9041,-0.3214 -2.2792,-0.646 -4.2288,-2.612 -4.2288,-5.5801 0,-3.6041 0.9839,-4.6077 3.2581,-6.2294 22.7439,-16.114 30.5538,-31.8853 30.5538,-75.5801 0,-30.8719 -12.683,-65.1666 -44.5304,-65.1666 -34.4216,0 -49.0409,36.92 -49.0409,70.0908 0,38.4459 9.7511,56.5244 33.7953,74.5749 25.9641,19.7264 56.8458,28.9255 56.8458,46.9957 0,8.858 -9.4298,10.5076 -15.6064,10.8323 -5.5208,0.3312 -13.3257,2.3105 -17.2215,7.8906 -15.9065,16.7551 -34.4282,34.1612 -56.5031,34.1612 -31.5063,0 -50.033,-33.5086 -50.033,-45.9905 0,-4.9391 0.9707,-9.5221 5.529,-9.5221 z"
       id="path3" /><path
       style="fill:#00674b"
       inkscape:connector-curvature="0"
       d="m 1676.492,1697.8476 h 4.9884 c 1.4832,0 3.4674,-1.5062 3.9684,-3.7673 0.7433,-2.0188 0.9905,-3.2712 0.9905,-9.822 v -112.449 c 0,-6.77 -0.2456,-8.0521 -0.9905,-10.0429 -0.5026,-1.7666 -2.233,-3.2729 -3.9684,-3.2729 h -4.9884 c -3.4674,0 -6.208,-3.0208 -6.208,-6.8013 0,-5.524 2.7406,-7.2956 11.1964,-7.2956 h 97.4886 l 4.7446,0.267 c 3.9436,0.2455 5.206,1.2392 6.9298,5.5257 l 7.2231,16.8408 c 1.4915,3.525 2.004,5.7943 2.004,7.0517 0,3.5267 -2.4951,6.03 -6.475,6.03 -3.2432,0 -4.4759,-0.9953 -7.4538,-5.5174 -4.9786,-7.3138 -9.7017,-11.0762 -15.4417,-12.0617 -4.2238,-0.7663 -10.7004,-1.0283 -23.1131,-1.0283 -13.1938,0 -18.1411,0.5158 -21.4024,1.7683 -3.9766,1.5029 -4.7182,4.2633 -4.7182,17.6005 v 39.7578 c 0,5.5323 0.7416,8.0488 2.2396,9.0574 1.2541,0.7432 2.9845,0.9888 10.1846,0.9888 h 19.4182 c 6.4717,0 9.6705,3.0207 9.6705,8.8217 0,6.0333 -2.4753,8.2844 -9.6705,8.2844 h -31.8424 v 32.2182 c 0,13.3208 1.5095,15.0726 15.1697,15.0726 h 16.6727 c 15.6626,0 20.3808,-1.7518 25.3791,-9.0409 1.7353,-2.2759 2.7159,-3.7805 2.9713,-4.293 0.9905,-0.9938 2.2561,-2.0007 3.4806,-2.5 0.735,-0.506 1.737,-0.7746 2.7175,-0.7746 3.7558,0 6.7403,2.7851 6.7403,5.7944 0,0.7514 -0.5076,2.2725 -1.2541,4.2781 l -7.2017,18.6092 c -1.4915,3.7986 -3.4938,5.0379 -8.6981,5.0379 h -95.7615 c -8.4558,0 -11.4502,-1.765 -11.4502,-7.2891 0,-3.7706 2.9927,-7.0485 6.4601,-7.0485 z"
       id="path5" /><path
       style="fill:#00674b"
       inkscape:connector-curvature="0"
       d="m 1543.4315,1697.8476 h 4.7446 c 1.7238,0 3.7244,-1.2623 4.2122,-3.2729 0.7367,-2.0056 1.0234,-3.0174 1.0234,-9.7956 v -113.718 c 0,-6.2838 -0.2867,-7.5412 -1.0234,-9.2947 -0.4878,-1.7666 -2.4884,-3.2729 -4.2122,-3.2729 h -4.7446 c -3.4773,0 -6.203,-3.0208 -6.203,-6.8013 0,-5.524 2.7241,-7.2956 10.9476,-7.2956 h 95.7582 c 7.6928,0 9.6885,1.2541 12.1737,7.5494 l 7.706,19.1151 1.002,2.7686 c 0.4993,1.0201 0.7514,2.0139 0.7514,3.0175 0,3.0207 -3.0009,5.5339 -6.7238,5.5339 -2.9746,0 -4.4858,-1.0102 -7.4621,-5.2785 -5.969,-8.5646 -9.2007,-11.8194 -13.4229,-13.5827 -4.2336,-1.7518 -6.971,-1.7518 -21.8886,-1.7518 -17.1556,0 -21.8869,0.2521 -24.3721,1.9907 -2.9763,1.7584 -3.469,4.293 -3.469,15.3577 v 105.6626 c 0,6.5343 0,8.0438 0.7333,9.7956 0.735,2.0122 2.9845,3.2729 5.2209,3.2729 h 5.4795 c 3.4608,0 6.4552,3.0241 6.4552,7.0452 0,5.5241 -2.9944,7.2891 -11.9347,7.2891 h -46.007 c -8.4559,0 -11.4387,-1.765 -11.4387,-7.2891 0,-4.0211 2.9828,-7.0452 6.6941,-7.0452 z"
       id="path7" /><path
       style="fill:#00674b"
       inkscape:connector-curvature="0"
       d="m 1503.1332,1382.6759 c -0.2505,-5.7696 -0.7449,-6.2673 -8.4559,-7.5429 -4.232,-0.4993 -6.6974,-3.0108 -6.6974,-6.7814 0,-2.0139 1.2409,-4.2881 2.9697,-5.5274 8.7228,-6.8145 38.3026,-12.5923 64.1596,-12.5923 27.6253,0 46.7667,5.5488 61.4519,17.3665 18.3966,14.8286 28.5894,39.9869 28.5894,70.4203 0,27.1804 -7.945,50.0759 -22.6253,64.9062 -15.1681,15.6065 -35.5884,22.3995 -65.4055,22.3995 -28.1131,0 -57.2133,-5.295 -65.9147,-12.088 -1.9809,-1.4997 -3.2218,-3.7641 -3.2218,-6.0169 0,-3.7887 2.7324,-6.3002 7.4539,-6.5359 6.7139,-0.5175 7.4489,-1.5194 7.6994,-8.0768 l 0.2538,-5.5241 v -98.8679 l -0.2571,-5.5389 z m 35.0775,101.1339 c 0,14.3408 0.4944,17.3534 3.7211,19.8649 3.7393,3.0307 10.9509,5.0478 18.6619,5.0478 29.5864,0 47.243,-26.1701 47.243,-70.4384 0,-44.2915 -17.6566,-69.9342 -48.2417,-69.9342 -9.4446,0 -16.9315,2.5099 -19.6408,6.2838 -1.4914,2.5148 -1.7435,4.5485 -1.7435,14.5864 v 94.5897 z"
       id="path9" /><path
       style="fill:#00674b"
       inkscape:connector-curvature="0"
       d="m 1665.0582,1458.4027 c 7.706,-9.059 9.9308,-10.5619 33.5564,-27.1572 14.181,-10.0709 20.9114,-15.6015 26.3679,-21.6546 5.2274,-6.0201 7.9532,-12.0617 7.9532,-18.8596 0,-13.3092 -10.9311,-22.3797 -27.0963,-22.3797 -14.1694,0 -28.1131,7.5593 -36.7963,19.8648 l -3.4938,5.0396 c -1.5062,2.0056 -3.7393,3.2729 -6.2228,3.2729 -4.4595,0 -7.945,-3.2729 -7.945,-7.8065 0,-1.2443 0.2209,-3.5152 0.7301,-5.0231 l 6.2146,-25.1599 c 1.4832,-6.0465 3.4838,-8.3059 7.7076,-8.3059 2.2314,0 3.4839,0.506 5.7202,2.2594 2.2528,2.0139 3.2367,2.5215 5.2274,2.5215 1.4964,0 1.9859,-0.2571 5.4664,-1.2509 7.2232,-2.2742 16.9232,-3.5316 26.1223,-3.5316 32.8346,0 54.2091,19.1299 54.2091,48.301 0,12.823 -4.9605,25.4087 -13.4246,34.2156 -7.9482,8.3207 -14.4183,13.319 -34.064,27.1737 -5.2159,3.7689 -9.2188,6.5277 -12.2083,8.8069 -4.9538,3.7689 -8.9502,7.795 -11.409,11.5656 -2.0007,2.7785 -2.7555,6.5474 -2.7555,10.3065 0,10.3197 7.4786,16.8557 18.9107,16.8557 8.1988,0 16.6464,-2.7489 23.3867,-8.0472 5.2208,-4.0211 6.2063,-5.0362 11.9397,-13.5794 2.2314,-3.2746 3.7244,-4.2716 6.4601,-4.2716 4.2205,0 7.2116,2.7669 7.2116,6.0399 0,0.7416 0,2.2412 -0.4993,3.5102 l -5.9707,27.1638 c -1.002,4.5419 -3.2317,7.0534 -6.971,7.0534 -1.9792,0 -2.7357,-0.2455 -5.2241,-2.0171 -2.2182,-1.4997 -3.9668,-2.2462 -5.707,-2.2462 -1.0004,0 -2.2413,0.229 -3.4921,0.4845 -3.4674,0.7564 -5.4565,1.2673 -6.2179,1.5046 -7.2083,1.5046 -14.4249,2.2742 -21.3893,2.2742 -27.3467,0 -45.7466,-16.1041 -45.7466,-40.5027 0,-10.0725 3.2202,-19.115 9.4496,-26.4206 z"
       id="path11" /><path
       style="fill:#00674b"
       inkscape:connector-curvature="0"
       d="m 1113.7425,1504.7064 c 25.8817,0 28.8662,-1.0317 35.8339,-11.5887 2.4868,-3.764 4.2172,-5.2719 6.9545,-5.2719 3.7377,0 6.4536,2.7554 6.4536,6.0365 0,1.0053 -0.2291,2.0106 -0.974,4.0195 l -6.4618,17.1045 c -1.2442,3.0307 -2.4917,5.0247 -3.9766,5.7713 -1.2574,0.7696 -1.9957,1.0316 -5.9871,1.0316 h -91.2641 c -8.2087,0 -10.9411,-1.7782 -10.9411,-7.294 0,-3.7871 2.477,-7.06 5.9641,-7.06 h 4.9786 c 1.7353,0 3.474,-1.2574 4.2205,-3.2548 0.4994,-1.7815 0.7498,-3.2811 0.7498,-9.8286 v -112.9385 c 0,-6.7996 -0.2504,-8.0554 -0.7498,-9.8105 -0.7465,-2.032 -2.4852,-3.2712 -4.2205,-3.2712 h -4.9786 c -3.4871,0 -6.4568,-3.2664 -6.4568,-7.0452 0,-5.5241 2.9713,-7.294 11.4354,-7.294 h 45.7515 c 9.209,0 12.1935,1.7699 12.1935,7.294 0,3.7788 -2.7406,7.0452 -6.4683,7.0452 h -5.7252 c -1.9825,0 -4.2155,1.2392 -5.2175,3.2712 -0.7548,1.7551 -0.7548,3.0109 -0.7548,9.8105 v 50.0594 c 0,5.2703 0.2505,6.7914 1.9941,7.5313 1.0003,0.5026 2.238,0.7696 3.4855,0.7696 h 25.3725 c 6.9644,0 10.6888,3.0109 10.6888,8.5597 0,5.7778 -3.4739,8.5382 -10.6888,8.5382 h -30.8521 v 37.4803 c 0,9.8286 1.503,10.3346 19.6408,10.3346 z"
       id="path13" /><path
       style="fill:#00674b"
       inkscape:connector-curvature="0"
       d="m 1750.8708,1333.7767 h -692.9936 c -21.2063,0 -38.3916,-17.3764 -38.3916,-38.8316 0,-21.4305 17.1869,-38.83 38.3916,-38.83 h 692.9936 c 21.2047,0 38.3949,17.3995 38.3949,38.83 0,21.4552 -17.1902,38.8316 -38.3949,38.8316 z m -598.8026,-52.9055 c 0.068,-0.7136 0.9591,-1.1602 1.7172,-1.1602 h 1.5886 c 1.33,0 2.4704,-1.353 2.4704,-2.8296 0,-1.9083 -1.0168,-2.6796 -4.0574,-2.6796 h -17.8972 c -3.1756,0 -4.3754,0.7713 -4.3754,2.6796 0,1.4766 1.1998,2.8296 2.6681,2.8296 h 1.7073 c 0.7581,0 1.4684,0.4466 1.7782,1.1602 0.3098,0.7614 0.3098,1.2146 0.3098,3.8514 v 20.1384 l -16.0514,-15.8355 c -0.9591,-1.0284 -2.0863,-1.6035 -3.2268,-1.6035 -1.2096,0 -1.7238,0.3823 -2.9218,1.6035 l -15.1072,16.2904 v -20.5917 c 0,-2.4967 0,-3.09 0.262,-3.8513 0.2472,-0.7729 0.9394,-1.1602 1.7156,-1.1602 h 1.9018 c 1.5277,0 2.6549,-1.353 2.6549,-2.8296 0,-1.9084 -1.0201,-2.6796 -4.5567,-2.6796 h -12.823 c -3.1065,0 -4.3754,0.7712 -4.3754,2.6796 0,1.4766 1.2689,2.8296 2.6664,2.8296 h 1.709 c 0.7696,0 1.3991,0.4466 1.7155,1.1602 0.3214,0.6476 0.3791,1.5408 0.3791,3.8513 v 22.5281 c 0,2.617 -0.058,3.2729 -0.3791,3.9766 -0.3164,0.7613 -0.9459,1.3431 -1.7155,1.3431 h -1.709 c -1.3991,0 -2.6664,1.1569 -2.6664,2.6912 0,2.0006 1.2689,2.762 4.3754,2.762 h 14.532 c 1.531,0 2.4077,-0.3873 4.5056,-2.6994 l 13.7129,-15.2159 15.9723,15.8685 c 1.6579,1.6018 2.6665,2.0468 4.0689,2.0468 h 11.1685 c 3.0422,0 4.0573,-0.7614 4.0573,-2.762 0,-1.5343 -1.1404,-2.6912 -2.4703,-2.6912 h -2.0485 c -0.758,0 -1.1239,-0.4499 -1.4535,-1.1454 -0.3131,-0.646 -0.3131,-1.5573 -0.3131,-4.1743 v -22.5281 c 0,-2.4967 0,-3.0916 0.5109,-3.853 z m 119.3492,-6.6694 h -20.1055 c -1.9084,0 -2.9269,1.0827 -2.9269,2.6796 0,1.9414 1.0778,2.4555 3.6157,2.8824 2.1572,0.3938 2.3385,1.554 1.5277,3.6041 l -0.2587,0.646 c -0.5027,1.2871 -1.2113,1.4074 -3.418,1.4074 h -14.5929 c -1.47,0 -2.2265,-0.1194 -2.617,-0.3131 -0.4368,-0.1998 -0.7499,-0.3823 -0.9542,-0.768 l -0.1731,-0.4597 c -0.6377,-1.4668 0.062,-3.7196 2.6582,-4.0343 2.4704,-0.3313 3.4872,-1.0201 3.4872,-2.8164 0,-1.7914 -1.3217,-2.8247 -3.2976,-2.8247 h -15.8603 c -2.35,0 -3.4278,0.7713 -3.4278,2.5 0,1.6562 0.819,2.3649 2.6664,2.8098 1.33,0.3313 1.7782,0.6477 2.3451,1.3596 0.4417,0.5719 1.3299,2.3122 2.2314,4.0343 l 14.9028,29.8501 c 1.7188,3.3998 4.9489,4.1743 7.9318,4.1743 2.7208,0 6.1635,-0.9706 7.7389,-4.1743 l 14.4018,-28.6998 c 2.2182,-4.4249 2.9104,-5.3692 4.3804,-5.8982 l 1.3365,-0.4466 c 0.946,-0.3131 1.7172,-1.1503 1.7172,-2.4967 0,-1.9314 -1.1536,-3.0158 -3.3091,-3.0158 z m 117.388,0 h -11.8655 c -2.6648,0 -3.9486,0.824 -5.7927,2.8247 l -13.385,15.1961 c -1.32,1.4914 -1.8276,2.3846 -1.8276,3.0257 0,1.2755 1.0794,1.8507 3.7376,2.1127 6.7337,0.5768 10.0791,3.0142 10.0791,8.1625 0,5.7614 -4.6341,8.3982 -10.4004,8.3982 -2.2265,0 -4.4381,-0.4466 -5.5851,-1.2739 -0.997,-0.7746 -1.3909,-2.0649 -1.5969,-4.8286 l -0.173,-3.1411 v -19.7709 c 0,-2.4951 0,-3.2136 0.2538,-3.7805 0.3164,-0.8273 1.1404,-1.3613 1.8441,-1.3613 h 1.9677 c 1.3299,0 2.411,-1.203 2.411,-2.7373 0,-2.0534 -1.0827,-2.8246 -4.3804,-2.8246 h -17.8246 c -3.1147,0 -4.3952,0.7712 -4.3952,2.8246 0,1.5343 1.2805,2.7373 2.6681,2.7373 h 1.7271 c 0.9344,0 1.5178,0.534 1.8391,1.3613 0.2406,0.707 0.2406,1.2854 0.2406,3.7805 v 22.0188 c 0,2.6302 -0.4367,3.0735 -2.9153,3.2251 -1.9018,0.1009 -2.968,0.9987 -2.968,2.678 0,0.8372 0.5059,1.8045 1.0662,2.3846 3.1147,2.4885 15.1533,3.7179 24.7347,3.7179 16.3778,0 25.3956,-4.2436 25.3956,-12.3171 0,-5.5785 -2.4786,-10.2044 -11.2937,-11.7502 l 8.5053,-9.3754 c 3.1625,-3.5251 5.4466,-4.7462 8.1098,-5.1895 1.9017,-0.534 2.1638,-0.5867 2.7274,-0.9015 0.5652,-0.3312 1.1602,-1.1503 1.1602,-2.1819 0,-1.9298 -1.4124,-3.0142 -4.064,-3.0142 z m 85.338,0 h -17.8428 c -3.1082,0 -4.3606,0.7713 -4.3606,2.8247 0,1.5342 1.2524,2.7373 2.6532,2.7373 h 1.7057 c 0.9509,0 1.5261,0.5339 1.8342,1.3612 0.2604,0.707 0.2604,1.2855 0.2604,3.7805 v 22.3451 c 0,2.5066 -0.051,3.3949 -0.2604,3.8415 -0.3098,0.7086 -0.8833,1.3448 -1.8342,1.3448 h -1.7057 c -1.4024,0 -2.6532,1.1684 -2.6532,2.8246 0,2.0007 1.2524,2.762 4.3606,2.762 h 17.8428 c 3.2795,0 4.377,-0.7613 4.377,-2.762 0,-1.6562 -1.0975,-2.8246 -2.4802,-2.8246 h -1.8968 c -0.7762,0 -1.3432,-0.4977 -1.653,-1.3448 -0.3296,-0.8421 -0.4466,-1.2245 -0.4466,-3.8415 v -22.3451 c 0,-1.6661 0.066,-3.2729 0.5504,-4.0343 0.4697,-0.7136 0.9097,-1.1074 1.5475,-1.1074 h 1.8969 c 1.2013,0 2.4802,-1.2031 2.4802,-2.7373 0,-2.0534 -1.2756,-2.8247 -4.3754,-2.8247 z m 37.9796,0 h -12.0403 c -2.6071,0 -3.4261,0.8916 -5.3213,2.8247 l -17.4704,17.4555 c -0.8108,0.8289 -1.1404,1.2755 -1.1404,1.8062 0,0.4993 0.5109,1.142 1.1404,1.6496 l 12.6467,10.7795 c 1.8342,1.6002 0.7564,3.5548 -0.262,3.5548 -1.1487,0 -1.8211,1.0629 -1.8211,2.9894 0,1.737 0.8702,2.762 3.0356,2.762 h 20.2308 c 2.0979,0 3.2383,-0.8289 3.2383,-2.6994 0,-1.5969 -0.8191,-2.4472 -3.2383,-2.7538 -2.2149,-0.2999 -3.0867,-0.2999 -4.6358,-0.6987 -1.4404,-0.3889 -3.2878,-1.4799 -4.5007,-2.505 l -11.5409,-10.0164 14.2716,-14.1827 c 3.7575,-3.7261 5.9081,-4.8698 7.7967,-5.4037 2.149,-0.5587 3.1839,-0.941 3.1839,-2.7373 0,-1.7403 -1.2623,-2.8247 -3.5728,-2.8247 z m 113.0835,9.8121 -3.2976,-8.3421 c -0.5159,-1.0926 -0.8784,-1.3497 -2.5347,-1.3497 l -1.9166,-0.1195 h -39.0162 c -3.2926,0 -4.3737,0.7713 -4.3737,2.8247 0,1.5343 1.0811,2.6846 2.4044,2.6846 h 1.9693 c 0.5735,0 1.3234,0.5866 1.4585,1.3645 0.3807,0.6163 0.4582,1.3365 0.4582,3.8299 v 22.1457 c 0,2.505 -0.078,3.1988 -0.4582,3.8563 -0.1359,0.8933 -0.885,1.531 -1.4585,1.531 h -1.9693 c -1.3233,0 -2.5841,1.2904 -2.5841,2.8247 0,2.0006 1.2624,2.762 4.5551,2.762 h 38.6371 c 2.0337,0 2.7308,-0.3213 3.1147,-1.2854 l 2.9137,-7.5659 c 0.1236,-0.3824 0.4417,-0.89 0.3823,-1.0927 -0.1792,-0.7828 -1.7699,-1.465 -3.1691,-1.465 -0.5108,0 -0.8767,0 -1.1437,0.1916 -0.5059,0.1194 -0.8833,0.3823 -1.2079,0.5652 -0.1834,0.2538 -0.3642,0.5801 -0.9509,1.2129 -1.5755,1.8705 -4.3557,3.853 -10.6131,3.853 h -6.4453 c -5.3939,0 -5.9789,-0.4977 -5.9789,-3.9733 v -7.2528 h 12.4242 c 2.9911,0 3.8316,-1.5969 3.8316,-3.2729 0,-1.7897 -1.1487,-3.413 -3.8316,-3.413 h -7.5873 c -1.9743,0 -3.4921,0.1422 -4.003,-0.2356 -0.5109,-0.3939 -0.8356,-1.0894 -0.8356,-2.566 v -6.8737 c 0,-3.4542 0.2703,-4.1612 1.9282,-4.5518 1.0564,-0.262 3.2136,-0.5339 8.3553,-0.5339 4.8237,0 7.3649,0.1483 8.9404,0.3345 2.1638,0.2488 5.3526,3.914 6.9298,5.8949 0.9492,1.2343 1.3299,1.4271 2.6681,1.4271 1.6546,0 2.5362,-0.6509 2.734,-1.4848 0.1092,-0.4499 0.047,-0.8899 -0.3296,-1.9249 z m 108.6867,21.7552 c -1.0135,0 -1.8342,0.384 -2.6467,1.4815 -0.473,0.5686 -0.5735,0.7004 -0.7762,0.8817 -0.9311,1.1717 -2.5478,3.4196 -3.6833,3.8085 -1.0629,0.3889 -2.4851,0.4977 -6.086,0.4977 -4.5649,0 -5.1384,-0.3164 -5.1384,-3.1328 v -24.3985 c 0,-2.4951 0,-3.0735 0.2488,-3.7805 0.3247,-0.8273 1.0794,-1.3613 1.915,-1.3613 h 2.6466 c 1.4816,0 2.5989,-1.203 2.5989,-2.7373 0,-2.0534 -1.1173,-2.8246 -4.6753,-2.8246 h -19.2403 c -3.4229,0 -4.616,0.7712 -4.616,2.8246 0,1.5343 1.1931,2.7373 2.467,2.7373 h 2.856 c 0.6427,0 1.3909,0.534 1.704,1.3613 0.262,0.707 0.4449,1.2854 0.4449,3.7805 v 24.3985 c 0,2.7356 -0.4449,3.1328 -6.1404,3.1328 -4.8994,0 -7.2956,-1.9825 -9.0227,-4.4183 l -0.5109,-0.7218 c -0.8603,-1.2673 -1.6381,-1.5293 -2.9252,-1.5293 -1.381,0 -3.2927,0.7152 -3.4031,1.5293 0,0.1957 0.1113,0.9147 0.3098,1.4189 l 2.9318,7.6418 c 0.562,1.6035 1.0135,1.6661 3.2861,1.6661 h 44.537 c 1.4617,0 1.531,-0.062 2.1704,-0.3214 0.3098,-0.1236 0.5405,-0.5817 0.8701,-1.3431 l 3.1724,-8.0158 c 0.1318,-0.3906 0.3115,-0.8487 0.2637,-1.0448 -0.1277,-0.7631 -2.0452,-1.531 -3.558,-1.531 z"
       id="path15" /><path
       style="fill:#00674b"
       inkscape:connector-curvature="0"
       d="m 1243.9371,1304.22 c -0.7614,1.6809 -1.0778,3.0306 -1.2574,4.0623 h -0.3873 c -0.2505,-0.9855 -0.8965,-2.444 -1.6002,-4.0623 l -4.8105,-10.7894 -0.9509,-1.5079 1.653,0.1627 h 11.7386 l 1.3349,-0.1627 -0.829,1.5079 -4.8912,10.7894 z"
       id="path17" /><path
       style="fill:#00674b"
       inkscape:connector-curvature="0"
       d="m 1069.3093,1553.2512 c 3.4773,-9.5567 6.9645,-12.5478 14.1794,-12.5478 3.2383,0 6.4617,1.2311 8.4492,2.7505 1.9825,2.0089 2.7357,3.7789 4.9769,9.7973 l 24.3722,68.9322 22.8791,-68.9322 c 2.9762,-9.2897 6.7122,-12.5478 14.1677,-12.5478 7.4621,0 10.7021,3.4987 14.4265,15.8273 l 39.5337,129.0312 c 2.7703,8.8398 4.5023,11.2162 9.6836,12.3237 h 1.3596 c 1.7551,0 3.4872,-1.2558 4.2403,-3.2631 0.7383,-1.7518 0.7383,-3.0125 0.7383,-9.8187 v -112.9352 c 0,-6.7667 0,-8.0208 -0.7383,-10.0412 -0.5109,-1.7601 -2.4852,-3.0257 -4.2403,-3.0257 h -4.9703 c -3.474,0 -6.4618,-3.2746 -6.4618,-7.0386 0,-5.5389 2.9878,-7.2957 11.4321,-7.2957 h 45.2654 c 7.9647,0 10.6987,1.7552 10.6987,7.0419 0,4.0178 -2.4851,7.2924 -5.9607,7.2924 h -4.738 c -1.9957,0 -3.9816,1.2656 -4.7182,3.0257 -0.5092,2.0204 -0.7548,3.5036 -0.7548,10.0412 v 46.0366 c 0,11.5656 1.002,12.5775 10.211,12.5775 h 33.8101 c 4.9605,0 7.4589,-0.7581 8.6899,-2.2792 1.2607,-1.4996 1.2607,-2.5132 1.2607,-11.8177 v -44.5221 c 0,-6.5376 0,-8.0208 -0.7482,-10.0413 -0.7432,-1.76 -2.7488,-3.0257 -4.4792,-3.0257 h -4.7232 c -3.4937,0 -6.47,-3.2745 -6.47,-7.0385 0,-5.5389 2.7439,-7.2957 11.1932,-7.2957 h 45.2522 c 8.7228,0 11.4436,1.7551 11.4436,7.2957 0,3.764 -2.7208,7.0385 -6.4551,7.0385 h -4.9902 c -1.7435,0 -3.7178,1.2657 -4.2353,3.0257 -0.735,2.0205 -0.9657,3.5037 -0.9657,10.0413 v 112.9352 c 0,6.292 0.2323,8.0669 0.9657,9.8187 0.5158,1.7633 2.4918,3.263 4.2353,3.263 h 4.9902 c 3.4706,0 6.4551,3.0208 6.4551,7.0386 0,5.5389 -2.9845,7.3055 -11.4436,7.3055 h -45.2522 c -8.4493,0 -11.4486,-1.765 -11.4486,-7.3055 0,-4.0178 2.9993,-7.0386 6.7271,-7.0386 h 4.7231 c 1.7304,0 3.736,-1.2558 4.4793,-3.263 0.7482,-1.7518 0.7482,-3.2729 0.7482,-9.8187 v -37.21 h -53.9717 v 37.21 c 0,6.292 0.2455,8.0669 0.7547,9.8187 0.7367,1.7633 2.7225,3.263 4.7182,3.263 h 4.738 c 3.4756,0 6.1965,3.0208 6.1965,7.0386 0,5.5389 -2.7209,7.3055 -10.9345,7.3055 h -82.1655 c -6.709,0 -9.4496,-2.0155 -9.4496,-7.0435 0,-4.0244 2.4852,-6.5458 7.9499,-7.0369 5.9723,-0.74 8.7063,-2.767 8.7063,-6.5392 0,-1.5162 -0.2505,-3.5136 -0.9937,-6.0465 l -29.3408,-96.3367 -29.5897,92.07 c -1.9974,6.03 -2.4885,8.2911 -2.4885,10.5587 0,4.5303 1.7354,6.03 8.446,6.7831 5.4762,0.7598 7.9713,2.7818 7.9713,6.8062 0,4.5155 -2.7406,6.7832 -8.4542,6.7832 h -48.7426 c -5.7235,0 -8.7196,-2.7505 -8.7196,-7.5297 0,-3.792 1.9941,-5.5521 7.215,-6.8128 5.7251,-1.4997 7.7191,-2.7587 9.2023,-6.5376 0.4994,-1.0003 1.0086,-2.9993 1.9908,-5.7861 l 11.4354,-33.703 -23.118,-65.1386 -33.5696,94.5783 -1.9941,5.7778 c -0.7416,2.0238 -1.0003,3.7888 -1.0003,5.5257 0,4.031 2.2446,5.8026 7.7143,6.3003 6.465,0.4994 8.9584,2.2594 8.9584,6.5458 0,4.5155 -2.4934,6.7832 -8.2053,6.7832 h -51.2443 c -5.7169,0 -8.4476,-2.2677 -8.4476,-6.5376 0,-4.0261 1.7436,-5.7861 6.9727,-6.7914 7.9449,-1.7732 9.1892,-3.0273 12.9268,-13.3372 l 48.7393,-132.309 z"
       id="path19" /><path
       style="fill:#00674b"
       inkscape:connector-curvature="0"
       d="m 1239.766,1350.2319 c 42.0683,0 71.2773,23.9733 79.8798,63.095 8.3768,-38.7987 37.4968,-63.095 78.7921,-63.095 50.4945,0 82.5578,34.4743 82.5578,88.301 0,52.8363 -32.0633,86.7915 -82.0733,86.7915 -41.6117,0 -70.5637,-23.7674 -79.125,-62.7868 -8.3751,38.8711 -37.6203,62.7868 -79.5205,62.7868 -49.9935,0 -81.8327,-34.2189 -81.8327,-88.0473 0,-52.5709 32.0864,-87.0452 81.3218,-87.0452 z m 158.9175,157.2233 c 27.6088,0 45.0116,-26.8985 45.0116,-70.1764 0,-42.2611 -17.1622,-68.9272 -44.5007,-68.9272 -28.1065,0 -44.7859,25.6427 -44.7859,68.6833 0,43.7558 16.681,70.4203 44.275,70.4203 z m -158.6719,0 c 27.6088,0 45.0116,-26.8985 45.0116,-70.1764 0,-42.2611 -17.1556,-68.9272 -44.5106,-68.9272 -28.1032,0 -44.7694,25.6427 -44.7694,68.6833 0,43.7558 16.6662,70.4203 44.2684,70.4203 z"
       id="path21" /></g></svg>